<?xml version="1.0" standalone="no"?><svg xmlns="http://www.w3.org/2000/svg" viewBox="0 0 1440 320"><path fill="#4b0505f8" fill-opacity="1" d="M0,192L30,192C60,192,120,192,180,176C240,160,300,128,360,128C420,128,480,160,540,181.3C600,203,660,213,720,224C780,235,840,245,900,245.3C960,245,1020,235,1080,240C1140,245,1200,267,1260,277.3C1320,288,1380,288,1410,288L1440,288L1440,320L1410,320C1380,320,1320,320,1260,320C1200,320,1140,320,1080,320C1020,320,960,320,900,320C840,320,780,320,720,320C660,320,600,320,540,320C480,320,420,320,360,320C300,320,240,320,180,320C120,320,60,320,30,320L0,320Z"></path></svg>